<?xml version="1.0" standalone="no"?>
<!DOCTYPE svg PUBLIC "-//W3C//DTD SVG 20010904//EN"
 "http://www.w3.org/TR/2001/REC-SVG-20010904/DTD/svg10.dtd">
<svg version="1.0" xmlns="http://www.w3.org/2000/svg"
 width="826.000000pt" height="786.000000pt" viewBox="0 0 826.000000 786.000000"
 preserveAspectRatio="xMidYMid meet">

<g transform="translate(0.000000,786.000000) scale(0.100000,-0.100000)"
fill="#000000" stroke="none">
<path d="M3875 7485 c-11 -2 -76 -9 -145 -15 -549 -50 -1057 -219 -1545 -513
-292 -175 -512 -352 -763 -613 -404 -420 -658 -836 -847 -1384 -116 -339 -176
-665 -193 -1046 -9 -201 10 -604 28 -604 3 0 48 29 99 64 l93 64 3 324 c2 273
5 345 24 463 68 444 181 796 376 1170 74 143 280 452 386 580 147 178 438 458
596 575 245 181 558 363 763 443 354 140 577 199 920 246 487 66 1082 8 1543
-150 119 -41 341 -136 476 -202 152 -76 279 -153 425 -257 488 -346 869 -792
1125 -1315 183 -374 263 -631 346 -1115 23 -132 33 -160 69 -189 47 -38 94
-89 142 -155 24 -32 44 -52 44 -45 0 51 -33 413 -46 499 -15 103 -66 356 -85
415 -5 17 -20 71 -35 120 -71 243 -210 565 -342 790 -257 438 -639 862 -1022
1135 -557 398 -1094 609 -1762 696 -112 14 -620 29 -673 19z"/>
<path d="M4894 6817 c-38 -40 -95 -107 -127 -150 -33 -43 -66 -77 -75 -77 -9
0 -44 4 -77 10 -224 35 -611 41 -896 14 -96 -10 -187 -18 -203 -18 -25 -1 -40
12 -110 98 -45 54 -106 120 -136 145 l-54 46 51 -60 c101 -118 191 -255 168
-255 -2 0 -53 -14 -111 -31 l-107 -31 -31 23 c-87 65 -218 145 -308 190 -153
75 -149 71 117 -104 127 -83 175 -120 175 -131 0 -3 -37 -23 -82 -44 -104 -49
-260 -172 -351 -278 -66 -76 -174 -244 -215 -335 -70 -153 -122 -298 -156
-434 -21 -85 -63 -299 -71 -368 -4 -31 -11 -59 -15 -62 -4 -3 -43 -10 -86 -15
-104 -14 -286 -49 -293 -56 -6 -6 40 -2 229 22 163 20 153 22 145 -28 -15
-101 -11 -95 -73 -103 -111 -13 -424 -82 -382 -84 8 0 101 13 205 29 105 16
200 30 212 30 23 0 23 4 4 -134 l-6 -49 -120 -33 c-102 -28 -175 -52 -348
-116 -15 -6 -26 -12 -23 -15 2 -2 60 12 128 33 146 44 341 93 349 88 5 -3 -6
-127 -16 -170 -4 -17 -27 -28 -122 -58 -140 -45 -372 -138 -356 -143 7 -3 109
28 228 66 119 39 221 71 227 71 11 0 7 -36 -33 -259 -16 -91 -28 -166 -26
-167 1 -1 55 1 120 3 109 5 118 7 122 27 2 12 14 118 25 236 12 118 22 215 23
216 15 14 566 116 580 107 4 -2 16 -21 26 -42 23 -45 95 -112 148 -140 122
-62 281 -67 397 -13 84 40 122 69 262 203 241 232 319 229 579 -21 140 -135
186 -168 280 -200 165 -57 400 26 482 168 14 26 28 49 29 50 6 9 557 -96 580
-110 6 -4 14 -49 18 -100 15 -202 68 -523 118 -708 56 -213 148 -465 182 -498
11 -11 53 -16 170 -20 86 -3 156 -2 156 1 0 4 -20 53 -45 109 -78 176 -162
407 -219 605 -57 200 -130 513 -124 537 2 11 56 -3 232 -60 126 -41 236 -74
245 -72 19 4 -185 84 -359 142 -69 22 -128 45 -131 49 -9 13 -33 186 -26 193
3 3 114 -26 247 -65 132 -39 246 -71 253 -70 20 0 -310 117 -415 147 -110 30
-103 21 -116 140 -8 67 -7 72 10 72 26 0 148 -18 238 -35 104 -21 202 -33 193
-25 -10 9 -289 68 -377 80 -37 5 -70 10 -72 12 -1 2 -6 34 -10 71 -8 79 -24
74 158 48 73 -11 160 -22 193 -25 l60 -5 -65 15 c-36 8 -130 26 -209 39 -79
14 -146 27 -149 30 -4 3 -16 67 -29 143 -47 283 -119 526 -214 718 -81 166
-140 254 -249 367 -114 119 -193 180 -319 243 -53 27 -98 50 -100 52 -16 10
194 157 317 223 46 24 79 45 73 47 -21 7 -239 -109 -333 -178 l-98 -70 -117
34 c-75 22 -117 39 -115 47 2 6 52 77 112 155 61 79 108 144 106 144 -2 0 -34
-33 -72 -73z m-425 -312 c68 -9 132 -20 142 -26 18 -9 18 -12 -7 -59 l-26 -50
-478 0 -477 0 -29 46 c-16 25 -29 48 -29 52 0 8 56 22 150 37 120 19 600 19
754 0z m-924 -82 c41 -61 36 -68 -56 -82 l-82 -12 -38 37 c-22 21 -36 41 -31
45 8 9 139 47 164 48 10 1 29 -16 43 -36z m1260 10 c28 -10 52 -18 54 -20 2
-1 -12 -20 -30 -42 -26 -31 -41 -41 -64 -41 -29 0 -133 24 -141 33 -3 3 5 26
18 52 l23 47 45 -6 c25 -3 68 -14 95 -23z m-1479 -79 c24 -20 44 -39 44 -43 0
-3 -35 -19 -77 -36 -209 -81 -457 -310 -567 -522 -9 -18 -15 -33 -12 -33 2 0
35 42 72 93 38 50 100 124 139 163 115 117 343 252 454 270 46 7 65 -12 63
-65 -2 -42 16 -64 61 -75 23 -5 30 -2 47 26 30 50 26 65 -29 93 -27 13 -52 29
-55 33 -3 5 27 12 67 15 65 6 74 5 90 -14 20 -24 22 -51 6 -81 -15 -28 -3 -65
26 -84 24 -16 27 -15 60 10 49 38 46 63 -15 117 -39 35 -46 45 -34 52 36 20
140 -43 181 -111 50 -82 21 -171 -107 -322 -115 -136 -239 -296 -266 -344 -25
-44 -32 -110 -12 -122 7 -5 9 -2 5 9 -3 9 -2 17 2 19 5 2 18 19 30 38 38 63
140 157 212 195 38 20 109 48 157 63 76 23 105 26 232 26 138 0 150 -2 245
-33 55 -18 127 -47 160 -65 67 -35 180 -141 210 -199 11 -20 25 -37 31 -37 22
0 23 29 1 72 -29 57 -177 253 -271 359 -100 113 -136 173 -143 242 -5 48 -2
62 21 101 34 57 79 92 134 101 44 7 55 -4 26 -27 -59 -48 -65 -58 -62 -101 l3
-42 45 0 c39 0 46 4 58 28 10 22 11 34 1 60 -10 28 -9 38 6 66 l17 33 71 -7
c40 -4 74 -8 76 -11 9 -8 -22 -33 -48 -39 -16 -3 -39 -17 -52 -31 l-24 -26 33
-29 c20 -18 43 -29 61 -29 30 0 29 -1 63 100 18 52 16 52 127 12 80 -28 222
-109 312 -178 67 -51 166 -161 234 -259 64 -94 75 -102 35 -30 -50 91 -107
173 -169 243 -94 107 -302 250 -419 287 -50 17 -52 19 -39 39 8 11 20 31 28
44 19 30 35 28 125 -13 108 -50 235 -137 328 -225 218 -208 333 -488 400 -970
9 -63 19 -130 21 -147 l6 -33 -194 0 c-231 0 -412 -13 -556 -41 -74 -15 -122
-19 -163 -14 l-58 7 0 -45 c0 -57 16 -75 64 -69 27 3 36 9 36 23 0 10 9 23 21
29 35 19 213 49 351 60 167 12 492 15 494 3 2 -4 4 -31 7 -59 l4 -50 -326 0
c-327 1 -448 -7 -633 -41 -69 -12 -96 -13 -132 -4 -73 18 -92 15 -106 -18 -15
-37 -5 -69 26 -83 19 -9 34 -6 81 15 90 40 348 82 591 96 160 9 494 -6 504
-23 4 -6 8 -42 8 -80 0 -60 -2 -67 -17 -62 -32 13 -237 44 -323 50 -47 3 -148
8 -225 12 -82 3 -159 12 -185 20 -43 15 -45 15 -62 -6 -24 -29 -23 -65 2 -90
26 -26 64 -26 82 2 12 17 28 23 84 29 38 4 72 5 75 3 3 -2 -1 -31 -10 -64 -15
-56 -17 -60 -41 -56 -14 3 -65 8 -115 11 -115 8 -172 21 -201 44 -41 33 -94
-1 -94 -59 0 -51 40 -63 108 -34 32 13 52 14 157 3 66 -7 124 -15 128 -20 27
-23 -100 -119 -184 -139 -86 -21 -193 -9 -274 30 -61 29 -94 58 -255 220 -158
160 -192 189 -234 203 -62 21 -109 21 -172 1 -42 -14 -73 -41 -214 -184 -170
-173 -249 -235 -334 -264 -86 -28 -208 -16 -296 29 -45 23 -130 97 -124 107 3
4 22 8 42 8 20 0 80 5 133 12 87 10 100 10 134 -6 25 -12 48 -16 71 -11 31 5
34 9 34 41 0 24 -8 43 -24 59 l-25 25 -53 -24 c-48 -22 -123 -35 -285 -50 -56
-5 -73 7 -73 52 0 11 -7 25 -15 32 -14 11 -15 6 -9 -43 l7 -56 -34 -5 c-159
-26 -457 -85 -511 -102 -16 -5 -18 3 -18 65 0 115 0 114 131 134 187 29 276
37 426 37 136 0 143 -1 171 -25 34 -29 58 -31 90 -9 15 10 22 25 22 46 0 59
-52 86 -103 54 -15 -9 -89 -17 -243 -25 -191 -10 -398 -35 -466 -57 -20 -6
-21 -4 -14 67 3 41 11 78 17 84 17 17 466 19 646 1 171 -16 364 -54 440 -87
76 -33 103 -22 103 42 0 60 -18 70 -87 52 -51 -13 -124 -12 -193 4 -8 2 -71
11 -140 20 -94 13 -205 17 -448 17 l-323 1 3 55 3 55 255 -1 c248 -1 378 -12
528 -44 45 -10 57 -18 74 -46 24 -41 50 -50 83 -28 31 20 41 57 26 90 -10 23
-15 25 -83 22 -40 -1 -118 5 -173 15 -155 26 -302 37 -512 37 -182 0 -193 1
-193 19 0 45 41 318 64 422 75 342 162 514 357 707 93 93 341 260 387 261 8 1
34 -15 58 -35z m2144 -1724 c159 -20 285 -43 297 -54 9 -8 19 -124 14 -167 -1
-4 -34 1 -73 12 -40 10 -156 34 -258 53 -102 19 -200 38 -217 42 -38 8 -43 31
-19 89 l15 35 83 0 c46 0 117 -5 158 -10z"/>
<path d="M3124 6002 c-77 -50 -135 -110 -181 -186 -36 -58 -38 -66 -41 -162
-3 -86 -1 -107 17 -146 23 -49 57 -78 110 -96 110 -38 211 18 379 211 53 61
111 117 139 133 l48 29 -38 9 c-32 8 -45 20 -74 66 -51 79 -111 148 -144 165
-16 9 -55 15 -92 15 -57 0 -70 -4 -123 -38z m186 -52 c71 -19 130 -112 130
-201 0 -36 -8 -48 -80 -122 -44 -46 -102 -96 -131 -111 -44 -25 -59 -28 -118
-24 -110 6 -159 56 -168 173 -6 72 7 108 66 182 73 92 193 133 301 103z"/>
<path d="M3185 5921 c-52 -13 -88 -37 -142 -94 -60 -63 -73 -113 -53 -197 17
-72 53 -100 131 -100 72 0 105 15 177 84 88 83 93 94 77 154 -19 75 -52 121
-99 143 -45 20 -47 20 -91 10z m136 -148 c8 -26 8 -41 -1 -63 -20 -47 -40 -47
-82 2 -21 24 -38 50 -38 58 0 8 14 29 32 47 l32 33 23 -22 c12 -11 27 -36 34
-55z"/>
<path d="M4850 6018 c-31 -16 -60 -44 -93 -88 -76 -104 -101 -130 -124 -133
-38 -5 -36 -14 15 -45 47 -29 69 -52 182 -190 62 -75 113 -114 189 -143 49
-19 63 -20 115 -10 101 18 152 83 162 207 8 95 -2 131 -58 221 -49 78 -115
137 -193 174 -74 36 -134 38 -195 7z m214 -79 c82 -23 186 -165 186 -254 -1
-61 -39 -145 -79 -172 -60 -40 -198 -21 -272 38 -54 42 -137 143 -145 175 -21
83 45 205 121 227 27 8 142 -1 189 -14z"/>
<path d="M4935 5922 c-60 -13 -113 -90 -122 -176 l-6 -56 70 -69 c76 -74 117
-91 218 -91 36 0 48 5 69 30 69 82 58 185 -29 287 -43 50 -141 87 -200 75z
m33 -104 c18 -18 14 -59 -8 -96 -25 -41 -44 -48 -74 -28 -43 28 -42 68 2 119
17 20 62 23 80 5z"/>
<path d="M5377 5605 c-6 -152 -26 -234 -73 -305 -41 -61 -116 -104 -202 -113
-24 -3 -46 -8 -49 -11 -4 -4 31 -48 136 -168 l24 -27 54 52 c67 64 130 186
144 279 13 95 10 211 -10 328 l-17 105 -7 -140z"/>
<path d="M2813 5680 c-50 -224 -31 -415 53 -552 24 -41 119 -138 133 -138 3 0
17 17 31 37 14 21 51 65 82 99 l58 61 -63 7 c-113 13 -175 54 -222 146 -39 77
-48 120 -54 260 l-6 135 -12 -55z"/>
<path d="M3834 5550 c-95 -10 -139 -26 -164 -57 -27 -35 -25 -49 13 -99 45
-61 84 -74 220 -74 l113 0 -7 80 c-4 43 -15 96 -25 117 -22 43 -33 46 -150 33z"/>
<path d="M4203 5523 c-8 -21 -18 -75 -21 -120 l-5 -83 109 0 c125 0 172 16
218 71 60 71 57 95 -13 126 -44 18 -171 42 -229 43 -40 0 -44 -2 -59 -37z"/>
<path d="M2740 4292 c-66 -29 -106 -107 -96 -185 8 -56 29 -113 52 -138 24
-26 86 -34 123 -15 64 34 96 159 63 251 -25 72 -89 111 -142 87z"/>
<path d="M5418 4202 c-62 -69 -75 -190 -29 -280 30 -58 47 -72 92 -72 69 0
111 61 124 177 6 53 4 68 -18 116 -25 56 -50 77 -108 91 -22 5 -33 -1 -61 -32z"/>
<path d="M7294 3903 c-7 -5 -12 -46 -13 -99 -2 -113 -32 -288 -67 -386 -65
-183 -185 -351 -308 -433 -212 -140 -491 -194 -859 -167 -317 24 -794 152
-1271 339 -103 41 -190 72 -193 70 -13 -14 309 -197 662 -378 569 -291 979
-402 1428 -386 269 9 432 47 621 145 128 67 226 153 303 264 66 96 86 138 111
228 85 307 28 587 -150 733 -24 20 -62 44 -83 52 -43 19 -164 30 -181 18z
m175 -209 c66 -55 120 -197 121 -315 0 -61 -36 -194 -67 -249 -85 -147 -254
-278 -456 -355 -109 -41 -391 -84 -412 -63 -3 3 42 28 99 56 150 72 277 162
381 267 180 183 248 326 277 583 7 56 15 102 19 102 4 0 21 -11 38 -26z"/>
<path d="M4919 3777 c-18 -12 -46 -47 -62 -77 -26 -49 -28 -62 -25 -126 6 -85
34 -141 91 -181 77 -54 162 -23 214 78 25 49 30 137 13 201 -30 107 -148 161
-231 105z"/>
<path d="M2705 3681 l-39 -6 29 -14 c17 -7 102 -38 190 -68 539 -185 1004
-427 1472 -766 39 -29 141 -101 225 -161 84 -60 169 -121 188 -135 125 -93
440 -300 577 -379 211 -123 472 -237 656 -288 137 -38 322 -44 437 -15 140 37
230 90 340 200 52 53 109 121 127 151 57 98 66 90 -105 90 -285 0 -617 53
-912 145 -47 15 -101 31 -120 37 -125 37 -486 207 -770 363 -58 32 -186 102
-285 155 -99 54 -227 124 -285 155 -97 54 -330 169 -495 245 -331 153 -607
246 -834 280 -130 19 -308 25 -396 11z m2807 -1250 c219 -88 496 -177 680
-221 102 -24 333 -60 385 -60 52 0 83 -10 83 -25 0 -17 -84 -87 -137 -114 -55
-28 -179 -45 -268 -37 -199 18 -433 137 -773 392 -70 53 -128 100 -130 105 -7
19 42 7 160 -40z"/>
<path d="M1687 3630 c-112 -10 -289 -40 -367 -64 -25 -7 -88 -26 -140 -41
-249 -73 -542 -252 -765 -469 l-100 -96 80 46 c399 231 704 319 1100 318 321
-1 611 -56 943 -179 174 -65 238 -92 527 -230 205 -97 619 -345 1058 -632 338
-221 568 -336 816 -409 210 -63 372 -77 537 -49 137 24 147 30 97 56 -145 73
-411 250 -838 556 -439 314 -691 476 -1072 692 -375 212 -870 401 -1220 466
-186 34 -477 49 -656 35z"/>
<path d="M1365 3054 c-166 -17 -426 -84 -580 -150 -99 -42 -240 -117 -250
-135 -11 -17 84 -330 141 -465 l26 -62 28 14 c47 24 191 74 271 94 393 101
749 100 1144 -2 268 -69 511 -174 822 -356 953 -557 1515 -786 2072 -842 184
-18 554 -13 715 11 135 19 339 62 455 94 68 19 78 12 20 -13 -135 -58 -518
-132 -809 -157 -220 -19 -315 -19 -510 0 -366 34 -606 88 -891 200 -218 86
-348 153 -829 428 -498 286 -708 383 -1010 468 -204 57 -318 74 -510 72 -184
-1 -293 -14 -464 -58 -180 -46 -406 -132 -406 -155 0 -27 145 -282 243 -427
168 -248 281 -385 468 -569 162 -160 200 -193 384 -333 255 -194 535 -351 845
-474 441 -176 796 -237 1380 -237 175 0 340 4 369 10 28 5 91 12 140 15 177
11 404 62 681 155 1007 336 1824 1113 2231 2124 27 66 44 122 39 124 -5 2 -29
-8 -53 -23 -25 -14 -80 -39 -123 -54 -120 -44 -174 -71 -174 -84 0 -19 -102
-188 -156 -259 -160 -208 -367 -347 -608 -408 -69 -17 -117 -22 -224 -22 -144
1 -221 12 -368 57 -95 29 -126 31 -185 10 -79 -28 -232 -63 -352 -81 -112 -17
-125 -17 -268 0 -176 20 -248 37 -424 101 -233 84 -570 266 -1090 586 -91 56
-191 115 -495 292 -234 135 -596 318 -725 366 -267 98 -487 141 -750 146 -99
2 -198 1 -220 -1z"/>
</g>
</svg>
